<?xml version="1.0"?>


<svg version="1.1" id="Ebene_1" xmlns="http://www.w3.org/2000/svg" xmlns:xlink="http://www.w3.org/1999/xlink" x="0px" y="0px" width="245" height="50" viewBox="22 35 240 48" preserveAspectRatio="xMinYMid meet" xml:space="preserve">
<g>
&#x9;<polygon fill="#C7CCC6" points="29.454,50.455 260.121,50.455 260.121,77.027 22.879,77.027 &#x9;"></polygon>
&#x9;<polygon fill="#010202" points="80.545,45.044 82.189,38.88 89.586,38.88 87.942,45.044 &#x9;"></polygon>
&#x9;<polygon fill="#A0CA78" points="79.724,43.743 81.368,37.579 88.764,37.579 87.121,43.743 &#x9;"></polygon>
&#x9;<polygon fill="#010202" points="79.724,50.181 86.709,50.181 80.545,76.891 73.56,76.891 &#x9;"></polygon>
&#x9;<path fill="#010202" d="M169.854,55.523l2.328-5.342c0,0-10.821-2.739-15.89,1.644c-1.78,1.917-7.122,5.611-3.424,11.709&#xA;&#x9;&#x9;c1.644,0.893,4.109,1.852,7.122,3.221c1.097,0.959,4.109,2.389-1.917,5.646c-1.918,0.107-8.082-0.303-8.629-1.947&#xA;&#x9;&#x9;c-1.37,6.027-1.37,6.027-1.37,6.027s13.149,3.621,19.04-4.08c0.958-1.81,3.835-7.426-0.686-10.166&#xA;&#x9;&#x9;c-3.425-1.37-8.767-3.16-6.985-5.004C160.266,55.934,160.951,54.153,169.854,55.523z"></path>
&#x9;<path fill="none" stroke="#010202" stroke-miterlimit="10" d="M132.597,21.279"></path>
&#x9;<path fill="#010202" d="M97.551,50.971c1.971-0.374,3.927-0.893,5.916-1.086c2.938-0.284,5.468,0.608,7.271,3.638&#xA;&#x9;&#x9;c1.289-5.405,2.492-10.453,3.733-15.657c2.249,0,4.509,0,7.114,0c-0.902,4.064-1.786,8.048-2.67,12.033&#xA;&#x9;&#x9;c-0.598,2.471-1.247,4.93-1.785,7.413c-1.45,6.689-2.853,13.39-4.274,20.084c-2.116,0.028-4.232,0.055-6.348,0.083&#xA;&#x9;&#x9;c-0.02-1.237-0.041-2.478-0.061-3.715c0.125-0.095,0.251-0.19-0.085,0.063c0.241-0.368,0.149-0.229,0.059-0.09&#xA;&#x9;&#x9;c-1.316,1.023-2.63,2.045-3.946,3.068c-2.971,1.275-6.039,1.066-9.125,0.6c-0.604-0.402-1.212-0.803-1.812-1.214&#xA;&#x9;&#x9;c-1.608-1.096-2.623-2.714-2.796-4.541c-0.595-6.278,0.251-12.245,4.81-17.085C94.777,53.266,96.212,52.164,97.551,50.971z&#xA;&#x9;&#x9; M108.677,62.881c0.285-5.617-1.251-6.553-3.669-7.249c-2.266-0.65-4.16,0.558-5.632,2.154c-2.551,2.769-3.567,6.221-3.374,9.886&#xA;&#x9;&#x9;c0.206,3.913,4.022,5.758,7.448,3.782C107.282,69.243,108.405,65.56,108.677,62.881z"></path>
&#x9;<path fill="#010202" d="M130.269,50.983c1.307-0.376,2.608-0.77,3.921-1.125c3.197-0.866,6.322-0.538,9.39,0.613&#xA;&#x9;&#x9;c5.203,3.843,4.598,10.609,2.4,15.581c-5.883,0-11.842,0-17.68,0c-1.066,1.538-0.491,2.833,0.261,3.974&#xA;&#x9;&#x9;c0.934,1.416,2.248,2.479,4.034,2.577c2.568,0.14,5.137,0.189,7.546-1.016c0.88-0.44,1.839-0.727,3.148-1.233&#xA;&#x9;&#x9;c-0.362,2.117-0.678,3.958-0.978,5.709c-0.432,0.216-0.688,0.315-0.913,0.462c-0.217,0.141-0.404,0.326-0.605,0.493&#xA;&#x9;&#x9;c-0.632,0.117-1.263,0.233-1.895,0.353c-4.374,0.814-8.736,1.1-13.06-0.299c-3.569-2.238-5.27-5.56-4.931-9.661&#xA;&#x9;&#x9;c0.479-5.811,2.467-11.003,7.304-14.718C128.919,52.148,129.585,51.553,130.269,50.983z M129.116,60.865c3.961,0,7.772,0,11.534,0&#xA;&#x9;&#x9;c0.755-2.101,0.6-3.882-1.055-5.353c-1.666-1.479-3.505-1.353-5.398-0.583C131.545,56.006,130.029,58.063,129.116,60.865z"></path>
&#x9;<path fill="#010202" d="M77.635,40.49c-0.377,1.025-0.755,2.05-1.163,3.161c-1.73,0.008-3.553-0.403-4.967,0.956&#xA;&#x9;&#x9;c-1.458,1.399-2.089,3.165-2.285,5.414c2.082,0.184,4.049,0.358,6.016,0.533c-0.063,0.308-0.125,0.616-0.187,0.923&#xA;&#x9;&#x9;c-0.393,1.292-0.784,2.584-1.233,4.066c-1.989,0-3.984,0-6.011,0c-1.012,4.362-1.955,8.541-2.958,12.705&#xA;&#x9;&#x9;c-0.748,3.104-1.574,6.187-2.364,9.28c-2.137,0.008-4.272,0.018-6.408,0.023c0.01-0.813-0.123-1.662,0.055-2.44&#xA;&#x9;&#x9;c1.14-4.991,2.365-9.962,3.522-14.95c0.34-1.466,0.547-2.963,0.862-4.7c-1.878,0-3.416,0-5.027,0&#xA;&#x9;&#x9;c0.205-1.73,0.384-3.243,0.563-4.756c1.883-0.287,3.766-0.572,5.891-0.896c0.23-0.862,0.5-1.917,0.795-2.966&#xA;&#x9;&#x9;c1.289-4.582,3.917-7.974,8.772-8.918c2.023-0.393,4.186-0.064,6.452-0.064c0.033,0.529,0.06,0.952,0.086,1.375&#xA;&#x9;&#x9;C77.908,39.654,77.771,40.072,77.635,40.49z"></path>
&#x9;<path fill="#010202" d="M89.586,74.167c0,0,1.83,3.228,4.819,3.386c3.674-0.799-0.846-3.386-0.846-3.386"></path>
&#x9;<path fill="none" stroke="#010202" stroke-miterlimit="10" d="M157.87,65.813"></path>
&#x9;<path fill="#C7CCC6" d="M129.116,60.865h11.534c0,0,2.179-3.443-2.184-6.104C136.71,54.37,131.936,54.016,129.116,60.865z"></path>
&#x9;<path fill="#010202" d="M131.364,78.154c0,0,9.57,0.228,10.949-2.093"></path>
&#x9;<path fill="#010202" d="M125.323,76.729c0,0,5.292,2.057,10.081,1.322c4.452-1.525-0.25-2.766-0.25-2.766"></path>
&#x9;<path fill="#010202" d="M124.821,76.361c0,0,2.256,1.928,6.815,1.777"></path>
&#x9;<path fill="#010202" d="M154.737,72.273c0,0,2.607,0.927,5.072-0.926c1.598-0.346,1.004,1.053,1.004,1.053l-2.374,1.523&#xA;&#x9;&#x9;l-4.109,0.639"></path>
&#x9;<path fill="#010202" d="M154.33,64.257c0,0-1.535-0.191-2.076-1.896"></path>
&#x9;<path fill="#010202" d="M159.324,58.625c0,0-0.925-0.649,1.378-2.834c1.755-2.094-1.562-1.207-1.562-1.207l-1.515,2.217&#xA;&#x9;&#x9;l1.499,3.744"></path>
&#x9;<path fill="#010202" d="M91.221,57.643c0,0,4.255-10.384,15.579-7.462v2.466l-6.667,1.006"></path>
&#x9;<path fill="#010202" d="M106.254,73.491c0,0-5.118,7.587-14.129,3.405c-0.874-3.195,2.297-2.846,2.297-2.846"></path>
&#x9;<path fill="#010202" d="M127.063,53.653c0,0,2.384-3.93,9.917-4.317c1.918,2.626-4.958,4.317-4.958,4.317"></path>
&#x9;<path fill="#010202" d="M222.92,63.936l3.231-0.603c0,0-1.37,4.233-13.149,14.718c-11.78,4.182-111.21,41.988-157.516,8.84&#xA;&#x9;&#x9;c-1.925-1.645-15.349-12.602-7.404-36.71c-2.433,9.048-10.817,42.134,43.994,43.011c54.811,0.879,78.462-8.219,78.462-8.219&#xA;&#x9;&#x9;l14.793-5.753l10.685-3.935l8.767-4.558L222.92,63.936z"></path>
&#x9;<path fill="#A3CB76" d="M46.438,47.441c0,0-3.561,20.82,4.383,28.901c2.466,2.603,32.053,44.792,175.33-16.574&#xA;&#x9;&#x9;C212.454,75.11,212.454,75.11,212.454,75.11s-96.321,37.806-145.688,15.614C62.875,89.082,39.59,81.686,46.438,47.441z"></path>
&#x9;<polyline fill="#010202" points="76.472,43.651 78.765,37.732 75.751,37.866 70.684,42.784 &#x9;"></polyline>
</g>
<path fill="#010202" d="M149.445,70.453c0,0,8.281,3.943,12.262-1.372c2.418-2.253,2.48,0.309,2.48,0.309l-1.875,3.538l-4.125,1.635&#xA;&#x9;H153.5l-1.875,0.723"></path>
<path fill="#010202" d="M161.215,69.667c0,0,1.48-1.782-4.398-4.311c-1.691-1.841,1.871-2.995,1.871-2.995l3.25,1.896l1.5,0.82&#xA;&#x9;l0.461,3.375l-1.398,3.267L161.215,69.667z"></path>
<path fill="#010202" d="M155.982,64.994c0,0-3.715-0.593-4.03-3.421"></path>
<path fill="#010202" d="M151.815,57.817c0,0,1.04-11.529,20.112-7.697c-5.678,2.832-12.053,3.532-12.053,3.532"></path>
<path fill="#010202" d="M162.514,55.169c0,0-4,0.976-2.757,3.911c0.806,1.998-1.409,3.409-1.409,3.409l-1.531-2.662l-1.254-2.688&#xA;&#x9;l1.688-2.556"></path>
<path fill="#C7CCC6" d="M151.754,60.865c0,0-0.316,1.871,7.996,4.948c1.063,0.39,2.531,1.913,1.172,4.151&#xA;&#x9;c-3.547,0.301-8.668-1.811-8.668-1.811"></path>
<path fill="#C7CCC6" d="M160.336,70.456c0,0,1.604-0.691,1.134-2.441c-1.324-0.583-2.432,0-2.432,0"></path>
<path fill="#010202" d="M157.313,67.411l1.726-1.867c0,0,4.586,1.331,1.107,5.016c-1,1.831,1.303,0.664,1.303,0.664l2.114-3.375&#xA;&#x9;l-1.691-1.354l-1.934-1.333"></path>
<polyline fill="#C7CCC6" points="159.038,65.544 159.313,65.641 159.313,66.036 158.125,67.349 156.816,67.515 157.313,66.161 "></polyline>
<path fill="#C7CCC6" d="M153.598,62.916c0,0-3.223-1.767-1.41-6.599c-0.188-1.864-1.625-0.52-1.625-0.52l-0.813,4.531l1.656,3.414"></path>
<g>
&#x9;<path fill="#010202" d="M101.491,116.063h-1.031l-2.017-2.918l-0.895,0.752l-0.495,2.166h-0.879l1.51-6.543h0.879l-0.787,3.391&#xA;&#x9;&#x9;l3.84-3.391h1.11l-3.592,3.133L101.491,116.063z"></path>
&#x9;<path fill="#010202" d="M107.151,112.891c0,0.439-0.067,0.861-0.202,1.266s-0.325,0.756-0.571,1.055&#xA;&#x9;&#x9;c-0.255,0.311-0.549,0.553-0.883,0.727s-0.724,0.262-1.169,0.262c-0.583,0-1.038-0.166-1.365-0.498s-0.49-0.793-0.49-1.379&#xA;&#x9;&#x9;c0-0.439,0.066-0.857,0.2-1.256s0.326-0.754,0.578-1.064c0.243-0.299,0.541-0.537,0.895-0.715c0.353-0.18,0.739-0.27,1.158-0.27&#xA;&#x9;&#x9;c0.565,0,1.015,0.162,1.349,0.484S107.151,112.287,107.151,112.891z M105.806,114.744c0.158-0.234,0.279-0.504,0.362-0.813&#xA;&#x9;&#x9;c0.084-0.307,0.125-0.633,0.125-0.975c0-0.41-0.098-0.721-0.294-0.932s-0.473-0.316-0.831-0.316c-0.284,0-0.539,0.066-0.765,0.203&#xA;&#x9;&#x9;s-0.42,0.324-0.584,0.561c-0.158,0.232-0.28,0.502-0.365,0.813s-0.127,0.633-0.127,0.967c0,0.404,0.098,0.715,0.294,0.932&#xA;&#x9;&#x9;s0.475,0.326,0.835,0.326c0.281,0,0.536-0.068,0.765-0.203S105.645,114.984,105.806,114.744z"></path>
&#x9;<path fill="#010202" d="M115.769,112.24c0,0.096-0.007,0.199-0.02,0.307c-0.014,0.109-0.033,0.219-0.06,0.33l-0.739,3.186h-0.824&#xA;&#x9;&#x9;l0.646-2.795c0.035-0.154,0.064-0.299,0.086-0.43s0.033-0.254,0.033-0.369c0-0.223-0.056-0.395-0.167-0.514&#xA;&#x9;&#x9;c-0.111-0.121-0.324-0.182-0.638-0.182c-0.232,0-0.477,0.064-0.735,0.193c-0.258,0.129-0.515,0.281-0.77,0.453&#xA;&#x9;&#x9;c-0.006,0.074-0.015,0.156-0.028,0.25s-0.029,0.178-0.046,0.252l-0.723,3.141h-0.825l0.644-2.795&#xA;&#x9;&#x9;c0.038-0.182,0.068-0.33,0.092-0.445s0.035-0.234,0.035-0.354c0-0.268-0.073-0.449-0.22-0.547&#xA;&#x9;&#x9;c-0.146-0.098-0.345-0.148-0.594-0.148c-0.176,0-0.373,0.045-0.59,0.135c-0.217,0.09-0.506,0.254-0.867,0.492l-0.846,3.662h-0.825&#xA;&#x9;&#x9;l1.134-4.908h0.825l-0.125,0.545c0.308-0.213,0.593-0.381,0.855-0.5c0.262-0.121,0.539-0.182,0.829-0.182&#xA;&#x9;&#x9;c0.331,0,0.6,0.07,0.807,0.211s0.343,0.336,0.411,0.586c0.386-0.281,0.733-0.484,1.041-0.609c0.308-0.125,0.611-0.188,0.909-0.188&#xA;&#x9;&#x9;c0.431,0,0.754,0.107,0.971,0.322C115.66,111.553,115.769,111.854,115.769,112.24z"></path>
&#x9;<path fill="#010202" d="M121.534,112.705c0,0.486-0.076,0.943-0.226,1.371c-0.151,0.428-0.351,0.791-0.6,1.09&#xA;&#x9;&#x9;c-0.252,0.309-0.545,0.551-0.879,0.729c-0.334,0.176-0.689,0.266-1.067,0.266c-0.264,0-0.506-0.031-0.727-0.09&#xA;&#x9;&#x9;c-0.221-0.061-0.422-0.148-0.604-0.262l-0.477,2.064h-0.825l1.552-6.719h0.825l-0.119,0.514c0.272-0.189,0.541-0.346,0.804-0.467&#xA;&#x9;&#x9;s0.555-0.184,0.875-0.184c0.478,0,0.841,0.148,1.092,0.445C121.409,111.758,121.534,112.172,121.534,112.705z M120.668,112.863&#xA;&#x9;&#x9;c0-0.348-0.076-0.617-0.229-0.807c-0.152-0.188-0.395-0.283-0.729-0.283c-0.243,0-0.495,0.061-0.755,0.182&#xA;&#x9;&#x9;c-0.26,0.119-0.503,0.256-0.729,0.406l-0.643,2.783c0.19,0.104,0.372,0.18,0.545,0.229c0.173,0.051,0.382,0.074,0.628,0.074&#xA;&#x9;&#x9;c0.302,0,0.573-0.072,0.815-0.219s0.441-0.338,0.6-0.572c0.167-0.246,0.292-0.52,0.374-0.82&#xA;&#x9;&#x9;C120.627,113.533,120.668,113.209,120.668,112.863z"></path>
&#x9;<path fill="#010202" d="M124.476,116.178c-0.679,0-1.211-0.16-1.598-0.479c-0.386-0.32-0.58-0.787-0.58-1.402&#xA;&#x9;&#x9;c0-0.9,0.284-1.67,0.852-2.314c0.568-0.643,1.271-0.965,2.107-0.965c0.556,0,0.982,0.139,1.278,0.416&#xA;&#x9;&#x9;c0.295,0.277,0.443,0.666,0.443,1.166c0,0.088-0.013,0.229-0.037,0.418c-0.025,0.191-0.065,0.412-0.121,0.664h-3.617&#xA;&#x9;&#x9;c-0.018,0.084-0.03,0.168-0.038,0.25s-0.011,0.158-0.011,0.229c0,0.414,0.126,0.738,0.378,0.973&#xA;&#x9;&#x9;c0.252,0.236,0.609,0.355,1.072,0.355c0.322,0,0.654-0.064,0.995-0.189c0.341-0.127,0.628-0.268,0.859-0.426h0.048l-0.18,0.891&#xA;&#x9;&#x9;c-0.146,0.053-0.278,0.102-0.395,0.146c-0.117,0.043-0.266,0.088-0.448,0.131c-0.181,0.045-0.342,0.078-0.483,0.102&#xA;&#x9;&#x9;C124.863,116.166,124.687,116.178,124.476,116.178z M126.126,113.074c0.015-0.084,0.025-0.156,0.031-0.215s0.009-0.123,0.009-0.193&#xA;&#x9;&#x9;c0-0.313-0.085-0.559-0.257-0.734c-0.171-0.176-0.446-0.264-0.824-0.264c-0.416,0-0.785,0.129-1.107,0.387s-0.541,0.598-0.655,1.02&#xA;&#x9;&#x9;H126.126z"></path>
&#x9;<path fill="#010202" d="M131.198,111.154l-0.149,0.668h-1.706l-0.525,2.266c-0.029,0.115-0.055,0.246-0.079,0.395&#xA;&#x9;&#x9;s-0.035,0.266-0.035,0.354c0,0.215,0.054,0.373,0.162,0.479c0.108,0.104,0.309,0.156,0.602,0.156c0.12,0,0.263-0.021,0.428-0.063&#xA;&#x9;&#x9;s0.277-0.072,0.336-0.096h0.044l-0.154,0.707c-0.164,0.041-0.339,0.074-0.525,0.102c-0.187,0.025-0.351,0.039-0.495,0.039&#xA;&#x9;&#x9;c-0.404,0-0.717-0.09-0.938-0.266c-0.222-0.178-0.332-0.459-0.332-0.842c0-0.094,0.007-0.188,0.02-0.279&#xA;&#x9;&#x9;c0.014-0.092,0.032-0.197,0.055-0.314l0.61-2.637h-0.558l0.15-0.668h0.562l0.327-1.41h0.83l-0.329,1.41H131.198z"></path>
&#x9;<path fill="#010202" d="M133.384,116.178c-0.679,0-1.211-0.16-1.598-0.479c-0.386-0.32-0.58-0.787-0.58-1.402&#xA;&#x9;&#x9;c0-0.9,0.284-1.67,0.852-2.314c0.568-0.643,1.271-0.965,2.107-0.965c0.556,0,0.982,0.139,1.278,0.416&#xA;&#x9;&#x9;c0.295,0.277,0.443,0.666,0.443,1.166c0,0.088-0.013,0.229-0.037,0.418c-0.025,0.191-0.065,0.412-0.121,0.664h-3.617&#xA;&#x9;&#x9;c-0.018,0.084-0.03,0.168-0.038,0.25s-0.011,0.158-0.011,0.229c0,0.414,0.126,0.738,0.378,0.973&#xA;&#x9;&#x9;c0.252,0.236,0.609,0.355,1.072,0.355c0.322,0,0.654-0.064,0.995-0.189c0.341-0.127,0.628-0.268,0.859-0.426h0.048l-0.18,0.891&#xA;&#x9;&#x9;c-0.146,0.053-0.278,0.102-0.395,0.146c-0.117,0.043-0.266,0.088-0.448,0.131c-0.181,0.045-0.342,0.078-0.483,0.102&#xA;&#x9;&#x9;C133.771,116.166,133.595,116.178,133.384,116.178z M135.034,113.074c0.015-0.084,0.025-0.156,0.031-0.215s0.009-0.123,0.009-0.193&#xA;&#x9;&#x9;c0-0.313-0.085-0.559-0.257-0.734c-0.171-0.176-0.446-0.264-0.824-0.264c-0.416,0-0.785,0.129-1.107,0.387s-0.541,0.598-0.655,1.02&#xA;&#x9;&#x9;H135.034z"></path>
&#x9;<path fill="#010202" d="M141.34,112.275c0,0.07-0.006,0.166-0.02,0.285c-0.013,0.121-0.032,0.227-0.055,0.316l-0.736,3.186h-0.823&#xA;&#x9;&#x9;l0.642-2.795c0.035-0.154,0.062-0.289,0.081-0.406c0.019-0.115,0.029-0.23,0.029-0.344c0-0.246-0.061-0.432-0.183-0.557&#xA;&#x9;&#x9;c-0.122-0.125-0.341-0.188-0.658-0.188c-0.223,0-0.469,0.063-0.737,0.186c-0.269,0.123-0.531,0.27-0.786,0.441l-0.846,3.662h-0.825&#xA;&#x9;&#x9;l1.134-4.908h0.825l-0.125,0.545c0.313-0.219,0.607-0.389,0.881-0.506c0.273-0.117,0.556-0.176,0.846-0.176&#xA;&#x9;&#x9;c0.428,0,0.761,0.107,1,0.324C141.221,111.557,141.34,111.867,141.34,112.275z"></path>
&#x9;<path fill="#010202" d="M145.699,116.063h-3.963l0.141-0.609l3.649-3.639h-2.81l0.153-0.66h3.846l-0.137,0.59l-3.664,3.66h2.939&#xA;&#x9;&#x9;L145.699,116.063z"></path>
</g>
<g>
&#x9;<path fill="#010202" d="M151.033,116.182c-0.365,0-0.693-0.045-0.981-0.137c-0.289-0.09-0.53-0.188-0.724-0.293l0.186-0.885h0.043&#xA;&#x9;&#x9;c0.063,0.053,0.142,0.115,0.24,0.188c0.098,0.072,0.223,0.143,0.375,0.213c0.139,0.068,0.295,0.125,0.473,0.174&#xA;&#x9;&#x9;s0.367,0.072,0.569,0.072c0.413,0,0.737-0.076,0.972-0.229s0.352-0.377,0.352-0.672c0-0.156-0.061-0.275-0.181-0.359&#xA;&#x9;&#x9;c-0.12-0.082-0.293-0.15-0.519-0.203c-0.114-0.027-0.252-0.057-0.411-0.088c-0.159-0.033-0.321-0.07-0.485-0.115&#xA;&#x9;&#x9;c-0.343-0.096-0.596-0.236-0.76-0.42c-0.164-0.182-0.246-0.406-0.246-0.67c0-0.229,0.049-0.441,0.148-0.641&#xA;&#x9;&#x9;s0.248-0.383,0.444-0.549c0.188-0.158,0.427-0.287,0.716-0.385c0.291-0.098,0.613-0.148,0.967-0.148&#xA;&#x9;&#x9;c0.293,0,0.586,0.037,0.877,0.111c0.291,0.072,0.529,0.164,0.715,0.271l-0.176,0.844h-0.045c-0.047-0.037-0.117-0.09-0.213-0.154&#xA;&#x9;&#x9;s-0.216-0.129-0.362-0.197c-0.126-0.055-0.273-0.104-0.441-0.145c-0.169-0.041-0.344-0.063-0.525-0.063&#xA;&#x9;&#x9;c-0.366,0-0.663,0.078-0.892,0.23c-0.229,0.154-0.344,0.365-0.344,0.631c0,0.146,0.057,0.27,0.168,0.367&#xA;&#x9;&#x9;c0.111,0.1,0.281,0.176,0.51,0.23c0.143,0.035,0.293,0.068,0.45,0.1c0.156,0.031,0.308,0.064,0.454,0.1&#xA;&#x9;&#x9;c0.34,0.084,0.596,0.217,0.768,0.395c0.171,0.18,0.257,0.402,0.257,0.672c0,0.227-0.054,0.447-0.16,0.662&#xA;&#x9;&#x9;c-0.107,0.215-0.262,0.402-0.464,0.561c-0.208,0.166-0.46,0.297-0.756,0.391S151.402,116.182,151.033,116.182z"></path>
&#x9;<path fill="#010202" d="M156.316,116.174c-0.311,0-0.586-0.037-0.824-0.111c-0.239-0.072-0.447-0.188-0.627-0.346&#xA;&#x9;&#x9;c-0.172-0.152-0.306-0.346-0.399-0.576c-0.094-0.232-0.141-0.502-0.141-0.809c0-0.461,0.071-0.889,0.216-1.287&#xA;&#x9;&#x9;c0.143-0.398,0.347-0.75,0.61-1.051c0.255-0.293,0.569-0.525,0.944-0.697s0.779-0.256,1.213-0.256c0.287,0,0.558,0.039,0.811,0.117&#xA;&#x9;&#x9;c0.254,0.08,0.478,0.174,0.671,0.281l-0.181,0.893h-0.048c-0.059-0.053-0.132-0.113-0.22-0.184&#xA;&#x9;&#x9;c-0.088-0.068-0.191-0.135-0.313-0.195c-0.119-0.064-0.253-0.117-0.399-0.16c-0.146-0.041-0.313-0.063-0.501-0.063&#xA;&#x9;&#x9;c-0.568,0-1.032,0.24-1.391,0.719c-0.359,0.479-0.539,1.063-0.539,1.75c0,0.412,0.106,0.729,0.318,0.951&#xA;&#x9;&#x9;c0.213,0.223,0.516,0.332,0.908,0.332c0.185,0,0.369-0.025,0.554-0.078s0.341-0.109,0.47-0.17c0.145-0.066,0.277-0.139,0.4-0.213&#xA;&#x9;&#x9;c0.123-0.076,0.213-0.133,0.268-0.172h0.049l-0.176,0.902c-0.255,0.113-0.524,0.213-0.809,0.295&#xA;&#x9;&#x9;C156.897,116.131,156.609,116.174,156.316,116.174z"></path>
&#x9;<path fill="#010202" d="M163.795,112.275c0,0.07-0.006,0.166-0.02,0.285c-0.013,0.121-0.031,0.227-0.055,0.316l-0.738,3.186h-0.823&#xA;&#x9;&#x9;l0.644-2.795c0.035-0.154,0.063-0.289,0.082-0.406c0.019-0.115,0.028-0.23,0.028-0.344c0-0.246-0.062-0.432-0.183-0.557&#xA;&#x9;&#x9;c-0.122-0.125-0.342-0.188-0.658-0.188c-0.224,0-0.47,0.063-0.738,0.186c-0.27,0.123-0.531,0.27-0.787,0.441l-0.844,3.662h-0.825&#xA;&#x9;&#x9;l1.576-6.838h0.825l-0.57,2.477c0.313-0.221,0.607-0.391,0.881-0.508c0.274-0.117,0.557-0.176,0.848-0.176&#xA;&#x9;&#x9;c0.428,0,0.761,0.107,1,0.324C163.676,111.557,163.795,111.867,163.795,112.275z"></path>
&#x9;<path fill="#010202" d="M167.689,115.541c-0.08,0.047-0.188,0.113-0.323,0.199s-0.274,0.16-0.415,0.223&#xA;&#x9;&#x9;c-0.15,0.066-0.316,0.123-0.502,0.168c-0.184,0.045-0.396,0.068-0.637,0.068c-0.39,0-0.706-0.113-0.949-0.34&#xA;&#x9;&#x9;s-0.365-0.523-0.365-0.891c0-0.389,0.086-0.719,0.258-0.986c0.171-0.268,0.426-0.486,0.762-0.656&#xA;&#x9;&#x9;c0.332-0.168,0.73-0.289,1.197-0.363c0.468-0.074,1-0.121,1.598-0.139c0.019-0.082,0.033-0.152,0.046-0.213&#xA;&#x9;&#x9;c0.013-0.059,0.019-0.121,0.019-0.186c0-0.141-0.027-0.256-0.084-0.344c-0.055-0.088-0.135-0.158-0.237-0.211&#xA;&#x9;&#x9;s-0.222-0.088-0.358-0.107s-0.287-0.029-0.451-0.029c-0.249,0-0.533,0.041-0.854,0.121c-0.318,0.08-0.578,0.16-0.777,0.24h-0.045&#xA;&#x9;&#x9;l0.163-0.826c0.167-0.045,0.411-0.094,0.733-0.15c0.322-0.055,0.632-0.084,0.928-0.084c0.609,0,1.066,0.096,1.371,0.287&#xA;&#x9;&#x9;c0.305,0.189,0.457,0.492,0.457,0.904c0,0.08-0.007,0.164-0.02,0.252c-0.014,0.09-0.029,0.174-0.047,0.254l-0.767,3.33h-0.819&#xA;&#x9;&#x9;L167.689,115.541z M168.169,113.475c-0.452,0.018-0.853,0.053-1.202,0.104c-0.351,0.051-0.64,0.125-0.869,0.223&#xA;&#x9;&#x9;c-0.236,0.096-0.417,0.227-0.54,0.393s-0.185,0.371-0.185,0.617c0,0.211,0.072,0.373,0.215,0.484&#xA;&#x9;&#x9;c0.144,0.111,0.366,0.166,0.668,0.166c0.266,0,0.538-0.059,0.814-0.178c0.277-0.119,0.535-0.262,0.775-0.43L168.169,113.475z"></path>
&#x9;<path fill="#010202" d="M173.973,109.994h-0.043c-0.086-0.029-0.199-0.057-0.34-0.084c-0.141-0.025-0.266-0.039-0.378-0.039&#xA;&#x9;&#x9;c-0.36,0-0.631,0.092-0.812,0.273c-0.18,0.182-0.316,0.463-0.407,0.844l-0.04,0.166h1.492l-0.158,0.66h-1.461l-0.961,4.248h-0.834&#xA;&#x9;&#x9;l0.961-4.248h-0.561l0.158-0.66h0.557l0.035-0.162c0.12-0.574,0.355-1.02,0.705-1.336c0.351-0.316,0.801-0.475,1.352-0.475&#xA;&#x9;&#x9;c0.186,0,0.352,0.008,0.502,0.025c0.149,0.018,0.284,0.039,0.404,0.063L173.973,109.994z"></path>
&#x9;<path fill="#010202" d="M177.137,109.994h-0.043c-0.086-0.029-0.199-0.057-0.34-0.084c-0.141-0.025-0.266-0.039-0.378-0.039&#xA;&#x9;&#x9;c-0.36,0-0.631,0.092-0.812,0.273c-0.18,0.182-0.316,0.463-0.407,0.844l-0.04,0.166h1.492l-0.158,0.66h-1.461l-0.961,4.248h-0.834&#xA;&#x9;&#x9;l0.961-4.248h-0.561l0.158-0.66h0.557l0.035-0.162c0.12-0.574,0.355-1.02,0.705-1.336c0.351-0.316,0.801-0.475,1.352-0.475&#xA;&#x9;&#x9;c0.186,0,0.352,0.008,0.502,0.025c0.149,0.018,0.284,0.039,0.404,0.063L177.137,109.994z"></path>
&#x9;<path fill="#010202" d="M179.989,111.154l-0.149,0.668h-1.706l-0.525,2.266c-0.029,0.115-0.056,0.246-0.079,0.395&#xA;&#x9;&#x9;s-0.035,0.266-0.035,0.354c0,0.215,0.055,0.373,0.162,0.479c0.109,0.104,0.31,0.156,0.602,0.156c0.121,0,0.264-0.021,0.429-0.063&#xA;&#x9;&#x9;s0.277-0.072,0.336-0.096h0.044l-0.154,0.707c-0.164,0.041-0.339,0.074-0.524,0.102c-0.187,0.025-0.351,0.039-0.495,0.039&#xA;&#x9;&#x9;c-0.404,0-0.717-0.09-0.938-0.266c-0.222-0.178-0.332-0.459-0.332-0.842c0-0.094,0.007-0.188,0.02-0.279&#xA;&#x9;&#x9;c0.014-0.092,0.031-0.197,0.055-0.314l0.611-2.637h-0.559l0.15-0.668h0.563l0.326-1.41h0.83l-0.329,1.41H179.989z"></path>
&#x9;<path fill="#010202" d="M192.166,109.52l-3.141,6.543h-1.008l-0.193-5.418l-2.539,5.418h-0.967l-0.269-6.543h0.884l0.174,5.432&#xA;&#x9;&#x9;l2.563-5.432h0.885l0.178,5.488l2.581-5.488H192.166z"></path>
&#x9;<path fill="#010202" d="M194.252,116.178c-0.68,0-1.212-0.16-1.598-0.479c-0.387-0.32-0.58-0.787-0.58-1.402&#xA;&#x9;&#x9;c0-0.9,0.283-1.67,0.852-2.314c0.568-0.643,1.271-0.965,2.107-0.965c0.557,0,0.982,0.139,1.277,0.416&#xA;&#x9;&#x9;c0.296,0.277,0.443,0.666,0.443,1.166c0,0.088-0.012,0.229-0.037,0.418c-0.025,0.191-0.064,0.412-0.121,0.664h-3.616&#xA;&#x9;&#x9;c-0.018,0.084-0.03,0.168-0.038,0.25c-0.007,0.082-0.01,0.158-0.01,0.229c0,0.414,0.125,0.738,0.377,0.973&#xA;&#x9;&#x9;c0.252,0.236,0.609,0.355,1.072,0.355c0.322,0,0.654-0.064,0.996-0.189c0.341-0.127,0.627-0.268,0.859-0.426h0.048l-0.181,0.891&#xA;&#x9;&#x9;c-0.146,0.053-0.277,0.102-0.395,0.146c-0.117,0.043-0.266,0.088-0.447,0.131c-0.182,0.045-0.343,0.078-0.483,0.102&#xA;&#x9;&#x9;C194.639,116.166,194.463,116.178,194.252,116.178z M195.902,113.074c0.014-0.084,0.024-0.156,0.03-0.215s0.009-0.123,0.009-0.193&#xA;&#x9;&#x9;c0-0.313-0.086-0.559-0.258-0.734c-0.17-0.176-0.445-0.264-0.823-0.264c-0.416,0-0.785,0.129-1.107,0.387s-0.54,0.598-0.655,1.02&#xA;&#x9;&#x9;H195.902z"></path>
&#x9;<path fill="#010202" d="M201.255,112.025h-0.044c-0.117-0.029-0.227-0.051-0.327-0.064s-0.224-0.02-0.366-0.02&#xA;&#x9;&#x9;c-0.275,0-0.548,0.063-0.818,0.186c-0.271,0.125-0.53,0.275-0.779,0.449l-0.795,3.486h-0.834l1.119-4.908h0.834l-0.165,0.725&#xA;&#x9;&#x9;c0.39-0.271,0.72-0.461,0.991-0.566c0.271-0.105,0.531-0.158,0.779-0.158c0.145,0,0.248,0.004,0.313,0.012s0.158,0.021,0.281,0.041&#xA;&#x9;&#x9;L201.255,112.025z"></path>
&#x9;<path fill="#010202" d="M204.814,111.154l-0.15,0.668h-1.705l-0.525,2.266c-0.029,0.115-0.056,0.246-0.079,0.395&#xA;&#x9;&#x9;s-0.035,0.266-0.035,0.354c0,0.215,0.054,0.373,0.162,0.479c0.108,0.104,0.31,0.156,0.602,0.156c0.12,0,0.263-0.021,0.429-0.063&#xA;&#x9;&#x9;c0.165-0.041,0.277-0.072,0.336-0.096h0.043l-0.153,0.707c-0.164,0.041-0.339,0.074-0.524,0.102&#xA;&#x9;&#x9;c-0.188,0.025-0.352,0.039-0.495,0.039c-0.404,0-0.718-0.09-0.938-0.266c-0.221-0.178-0.332-0.459-0.332-0.842&#xA;&#x9;&#x9;c0-0.094,0.008-0.188,0.02-0.279c0.014-0.092,0.032-0.197,0.056-0.314l0.61-2.637h-0.558l0.15-0.668h0.562l0.327-1.41h0.829&#xA;&#x9;&#x9;l-0.328,1.41H204.814z"></path>
&#x9;<path fill="#010202" d="M207,116.178c-0.679,0-1.211-0.16-1.598-0.479c-0.387-0.32-0.58-0.787-0.58-1.402&#xA;&#x9;&#x9;c0-0.9,0.284-1.67,0.852-2.314c0.568-0.643,1.271-0.965,2.107-0.965c0.557,0,0.982,0.139,1.278,0.416s0.443,0.666,0.443,1.166&#xA;&#x9;&#x9;c0,0.088-0.013,0.229-0.037,0.418c-0.025,0.191-0.065,0.412-0.121,0.664h-3.616c-0.018,0.084-0.031,0.168-0.038,0.25&#xA;&#x9;&#x9;s-0.011,0.158-0.011,0.229c0,0.414,0.126,0.738,0.378,0.973c0.252,0.236,0.609,0.355,1.072,0.355c0.322,0,0.653-0.064,0.995-0.189&#xA;&#x9;&#x9;c0.342-0.127,0.628-0.268,0.859-0.426h0.049l-0.181,0.891c-0.146,0.053-0.278,0.102-0.396,0.146&#xA;&#x9;&#x9;c-0.117,0.043-0.266,0.088-0.447,0.131c-0.182,0.045-0.342,0.078-0.482,0.102S207.211,116.178,207,116.178z M208.65,113.074&#xA;&#x9;&#x9;c0.015-0.084,0.025-0.156,0.031-0.215s0.008-0.123,0.008-0.193c0-0.313-0.085-0.559-0.257-0.734&#xA;&#x9;&#x9;c-0.171-0.176-0.446-0.264-0.823-0.264c-0.416,0-0.785,0.129-1.107,0.387s-0.541,0.598-0.655,1.02H208.65z"></path>
</g>
</svg>